%TF.GenerationSoftware,KiCad,Pcbnew,5.1.10-88a1d61d58~90~ubuntu20.04.1*%
%TF.CreationDate,2021-09-19T21:40:22+08:00*%
%TF.ProjectId,IP2721-USB-C-breakout,49503237-3231-42d5-9553-422d432d6272,rev?*%
%TF.SameCoordinates,Original*%
%TF.FileFunction,Copper,L2,Bot*%
%TF.FilePolarity,Positive*%
%FSLAX46Y46*%
G04 Gerber Fmt 4.6, Leading zero omitted, Abs format (unit mm)*
G04 Created by KiCad (PCBNEW 5.1.10-88a1d61d58~90~ubuntu20.04.1) date 2021-09-19 21:40:22*
%MOMM*%
%LPD*%
G01*
G04 APERTURE LIST*
%TA.AperFunction,ComponentPad*%
%ADD10O,1.000000X1.600000*%
%TD*%
%TA.AperFunction,ComponentPad*%
%ADD11O,0.900000X2.100000*%
%TD*%
%TA.AperFunction,ComponentPad*%
%ADD12O,1.700000X1.700000*%
%TD*%
%TA.AperFunction,ComponentPad*%
%ADD13R,1.700000X1.700000*%
%TD*%
%TA.AperFunction,ViaPad*%
%ADD14C,0.800000*%
%TD*%
%TA.AperFunction,ViaPad*%
%ADD15C,1.000000*%
%TD*%
%TA.AperFunction,Conductor*%
%ADD16C,0.250000*%
%TD*%
%TA.AperFunction,Conductor*%
%ADD17C,0.500000*%
%TD*%
G04 APERTURE END LIST*
D10*
%TO.P,U2,S1*%
%TO.N,Net-(U2-PadS1)*%
X129374560Y-47794620D03*
X120734560Y-47794620D03*
D11*
X129374560Y-51974620D03*
X120734560Y-51974620D03*
%TD*%
D12*
%TO.P,J1,2*%
%TO.N,GND*%
X141869560Y-48318420D03*
D13*
%TO.P,J1,1*%
%TO.N,VOUT*%
X141869560Y-50858420D03*
%TD*%
D14*
%TO.N,GND*%
X130741420Y-52915820D03*
X135958580Y-59301380D03*
X122444130Y-55554880D03*
D15*
%TO.N,VIN*%
X127299720Y-56474360D03*
X132265420Y-69181980D03*
X123294140Y-57096660D03*
D14*
%TO.N,CC1*%
X129909060Y-60180220D03*
X123985020Y-58892440D03*
%TO.N,CC2*%
X132046560Y-60235920D03*
X126702820Y-57655460D03*
%TD*%
D16*
%TO.N,GND*%
X130741420Y-52915820D02*
X135958580Y-58132980D01*
X135958580Y-58132980D02*
X135958580Y-59301380D01*
X135958580Y-59301380D02*
X132212080Y-55554880D01*
X132212080Y-55554880D02*
X122444130Y-55554880D01*
D17*
%TO.N,VIN*%
X127299720Y-56474360D02*
X129951480Y-56474360D01*
X129951480Y-56474360D02*
X134620000Y-61142880D01*
X134620000Y-61142880D02*
X134620000Y-66827400D01*
X134620000Y-66827400D02*
X132265420Y-69181980D01*
X123916440Y-56474360D02*
X123294140Y-57096660D01*
X127299720Y-56474360D02*
X123916440Y-56474360D01*
D16*
%TO.N,CC1*%
X125272800Y-60180220D02*
X123985020Y-58892440D01*
X129909060Y-60180220D02*
X125272800Y-60180220D01*
%TO.N,Net-(U2-PadS1)*%
X129374560Y-51974620D02*
X129374560Y-47794620D01*
X120734560Y-51974620D02*
X120734560Y-47794620D01*
%TO.N,CC2*%
X132046560Y-60235920D02*
X129466100Y-57655460D01*
X129466100Y-57655460D02*
X126702820Y-57655460D01*
%TD*%
M02*
