%TF.GenerationSoftware,KiCad,Pcbnew,5.1.10-88a1d61d58~90~ubuntu20.04.1*%
%TF.CreationDate,2021-09-19T21:40:22+08:00*%
%TF.ProjectId,IP2721-USB-C-breakout,49503237-3231-42d5-9553-422d432d6272,rev?*%
%TF.SameCoordinates,Original*%
%TF.FileFunction,Copper,L1,Top*%
%TF.FilePolarity,Positive*%
%FSLAX46Y46*%
G04 Gerber Fmt 4.6, Leading zero omitted, Abs format (unit mm)*
G04 Created by KiCad (PCBNEW 5.1.10-88a1d61d58~90~ubuntu20.04.1) date 2021-09-19 21:40:22*
%MOMM*%
%LPD*%
G01*
G04 APERTURE LIST*
%TA.AperFunction,ComponentPad*%
%ADD10O,1.000000X1.600000*%
%TD*%
%TA.AperFunction,ComponentPad*%
%ADD11O,0.900000X2.100000*%
%TD*%
%TA.AperFunction,SMDPad,CuDef*%
%ADD12R,0.300000X1.750000*%
%TD*%
%TA.AperFunction,SMDPad,CuDef*%
%ADD13R,0.600000X1.750000*%
%TD*%
%TA.AperFunction,SMDPad,CuDef*%
%ADD14R,1.000000X0.600000*%
%TD*%
%TA.AperFunction,ComponentPad*%
%ADD15O,1.700000X1.700000*%
%TD*%
%TA.AperFunction,ComponentPad*%
%ADD16R,1.700000X1.700000*%
%TD*%
%TA.AperFunction,ViaPad*%
%ADD17C,0.800000*%
%TD*%
%TA.AperFunction,ViaPad*%
%ADD18C,1.000000*%
%TD*%
%TA.AperFunction,Conductor*%
%ADD19C,0.250000*%
%TD*%
%TA.AperFunction,Conductor*%
%ADD20C,0.400600*%
%TD*%
%TA.AperFunction,Conductor*%
%ADD21C,0.500000*%
%TD*%
%TA.AperFunction,Conductor*%
%ADD22C,1.000000*%
%TD*%
G04 APERTURE END LIST*
D10*
%TO.P,U2,S1*%
%TO.N,Net-(U2-PadS1)*%
X129374560Y-47794620D03*
X120734560Y-47794620D03*
D11*
X129374560Y-51974620D03*
X120734560Y-51974620D03*
D12*
%TO.P,U2,A7*%
%TO.N,N/C*%
X124804560Y-52814620D03*
%TO.P,U2,B6*%
X124304560Y-52814620D03*
%TO.P,U2,A8*%
X123804560Y-52814620D03*
%TO.P,U2,B5*%
%TO.N,CC1*%
X123304560Y-52814620D03*
%TO.P,U2,B7*%
%TO.N,N/C*%
X125804560Y-52814620D03*
%TO.P,U2,B8*%
X126804560Y-52814620D03*
%TO.P,U2,A5*%
%TO.N,CC2*%
X126304560Y-52814620D03*
%TO.P,U2,A6*%
%TO.N,N/C*%
X125304560Y-52814620D03*
D13*
%TO.P,U2,GND*%
%TO.N,GND*%
X128254960Y-52814620D03*
%TO.P,U2,VBUS*%
%TO.N,VIN*%
X127467560Y-52814620D03*
X122666960Y-52814620D03*
%TO.P,U2,GND*%
%TO.N,GND*%
X121854160Y-52814620D03*
%TD*%
D14*
%TO.P,Q1,G*%
%TO.N,Net-(Q1-PadG)*%
X119371560Y-72438220D03*
%TO.P,Q1,D*%
%TO.N,VIN*%
X121491560Y-73388220D03*
%TO.P,Q1,S*%
%TO.N,VOUT*%
X119371560Y-74338220D03*
%TD*%
%TO.P,U1,16*%
%TO.N,VOUT*%
%TA.AperFunction,SMDPad,CuDef*%
G36*
G01*
X124732560Y-65893720D02*
X124532560Y-65893720D01*
G75*
G02*
X124432560Y-65793720I0J100000D01*
G01*
X124432560Y-64518720D01*
G75*
G02*
X124532560Y-64418720I100000J0D01*
G01*
X124732560Y-64418720D01*
G75*
G02*
X124832560Y-64518720I0J-100000D01*
G01*
X124832560Y-65793720D01*
G75*
G02*
X124732560Y-65893720I-100000J0D01*
G01*
G37*
%TD.AperFunction*%
%TO.P,U1,15*%
%TO.N,N/C*%
%TA.AperFunction,SMDPad,CuDef*%
G36*
G01*
X125382560Y-65893720D02*
X125182560Y-65893720D01*
G75*
G02*
X125082560Y-65793720I0J100000D01*
G01*
X125082560Y-64518720D01*
G75*
G02*
X125182560Y-64418720I100000J0D01*
G01*
X125382560Y-64418720D01*
G75*
G02*
X125482560Y-64518720I0J-100000D01*
G01*
X125482560Y-65793720D01*
G75*
G02*
X125382560Y-65893720I-100000J0D01*
G01*
G37*
%TD.AperFunction*%
%TO.P,U1,14*%
%TA.AperFunction,SMDPad,CuDef*%
G36*
G01*
X126032560Y-65893720D02*
X125832560Y-65893720D01*
G75*
G02*
X125732560Y-65793720I0J100000D01*
G01*
X125732560Y-64518720D01*
G75*
G02*
X125832560Y-64418720I100000J0D01*
G01*
X126032560Y-64418720D01*
G75*
G02*
X126132560Y-64518720I0J-100000D01*
G01*
X126132560Y-65793720D01*
G75*
G02*
X126032560Y-65893720I-100000J0D01*
G01*
G37*
%TD.AperFunction*%
%TO.P,U1,13*%
%TO.N,CC1*%
%TA.AperFunction,SMDPad,CuDef*%
G36*
G01*
X126682560Y-65893720D02*
X126482560Y-65893720D01*
G75*
G02*
X126382560Y-65793720I0J100000D01*
G01*
X126382560Y-64518720D01*
G75*
G02*
X126482560Y-64418720I100000J0D01*
G01*
X126682560Y-64418720D01*
G75*
G02*
X126782560Y-64518720I0J-100000D01*
G01*
X126782560Y-65793720D01*
G75*
G02*
X126682560Y-65893720I-100000J0D01*
G01*
G37*
%TD.AperFunction*%
%TO.P,U1,12*%
%TO.N,CC2*%
%TA.AperFunction,SMDPad,CuDef*%
G36*
G01*
X127332560Y-65893720D02*
X127132560Y-65893720D01*
G75*
G02*
X127032560Y-65793720I0J100000D01*
G01*
X127032560Y-64518720D01*
G75*
G02*
X127132560Y-64418720I100000J0D01*
G01*
X127332560Y-64418720D01*
G75*
G02*
X127432560Y-64518720I0J-100000D01*
G01*
X127432560Y-65793720D01*
G75*
G02*
X127332560Y-65893720I-100000J0D01*
G01*
G37*
%TD.AperFunction*%
%TO.P,U1,11*%
%TO.N,SEL*%
%TA.AperFunction,SMDPad,CuDef*%
G36*
G01*
X127982560Y-65893720D02*
X127782560Y-65893720D01*
G75*
G02*
X127682560Y-65793720I0J100000D01*
G01*
X127682560Y-64518720D01*
G75*
G02*
X127782560Y-64418720I100000J0D01*
G01*
X127982560Y-64418720D01*
G75*
G02*
X128082560Y-64518720I0J-100000D01*
G01*
X128082560Y-65793720D01*
G75*
G02*
X127982560Y-65893720I-100000J0D01*
G01*
G37*
%TD.AperFunction*%
%TO.P,U1,10*%
%TO.N,N/C*%
%TA.AperFunction,SMDPad,CuDef*%
G36*
G01*
X128632560Y-65893720D02*
X128432560Y-65893720D01*
G75*
G02*
X128332560Y-65793720I0J100000D01*
G01*
X128332560Y-64518720D01*
G75*
G02*
X128432560Y-64418720I100000J0D01*
G01*
X128632560Y-64418720D01*
G75*
G02*
X128732560Y-64518720I0J-100000D01*
G01*
X128732560Y-65793720D01*
G75*
G02*
X128632560Y-65893720I-100000J0D01*
G01*
G37*
%TD.AperFunction*%
%TO.P,U1,9*%
%TA.AperFunction,SMDPad,CuDef*%
G36*
G01*
X129282560Y-65893720D02*
X129082560Y-65893720D01*
G75*
G02*
X128982560Y-65793720I0J100000D01*
G01*
X128982560Y-64518720D01*
G75*
G02*
X129082560Y-64418720I100000J0D01*
G01*
X129282560Y-64418720D01*
G75*
G02*
X129382560Y-64518720I0J-100000D01*
G01*
X129382560Y-65793720D01*
G75*
G02*
X129282560Y-65893720I-100000J0D01*
G01*
G37*
%TD.AperFunction*%
%TO.P,U1,8*%
%TA.AperFunction,SMDPad,CuDef*%
G36*
G01*
X129282560Y-71618720D02*
X129082560Y-71618720D01*
G75*
G02*
X128982560Y-71518720I0J100000D01*
G01*
X128982560Y-70243720D01*
G75*
G02*
X129082560Y-70143720I100000J0D01*
G01*
X129282560Y-70143720D01*
G75*
G02*
X129382560Y-70243720I0J-100000D01*
G01*
X129382560Y-71518720D01*
G75*
G02*
X129282560Y-71618720I-100000J0D01*
G01*
G37*
%TD.AperFunction*%
%TO.P,U1,7*%
%TA.AperFunction,SMDPad,CuDef*%
G36*
G01*
X128632560Y-71618720D02*
X128432560Y-71618720D01*
G75*
G02*
X128332560Y-71518720I0J100000D01*
G01*
X128332560Y-70243720D01*
G75*
G02*
X128432560Y-70143720I100000J0D01*
G01*
X128632560Y-70143720D01*
G75*
G02*
X128732560Y-70243720I0J-100000D01*
G01*
X128732560Y-71518720D01*
G75*
G02*
X128632560Y-71618720I-100000J0D01*
G01*
G37*
%TD.AperFunction*%
%TO.P,U1,6*%
%TA.AperFunction,SMDPad,CuDef*%
G36*
G01*
X127982560Y-71618720D02*
X127782560Y-71618720D01*
G75*
G02*
X127682560Y-71518720I0J100000D01*
G01*
X127682560Y-70243720D01*
G75*
G02*
X127782560Y-70143720I100000J0D01*
G01*
X127982560Y-70143720D01*
G75*
G02*
X128082560Y-70243720I0J-100000D01*
G01*
X128082560Y-71518720D01*
G75*
G02*
X127982560Y-71618720I-100000J0D01*
G01*
G37*
%TD.AperFunction*%
%TO.P,U1,5*%
%TO.N,GND*%
%TA.AperFunction,SMDPad,CuDef*%
G36*
G01*
X127332560Y-71618720D02*
X127132560Y-71618720D01*
G75*
G02*
X127032560Y-71518720I0J100000D01*
G01*
X127032560Y-70243720D01*
G75*
G02*
X127132560Y-70143720I100000J0D01*
G01*
X127332560Y-70143720D01*
G75*
G02*
X127432560Y-70243720I0J-100000D01*
G01*
X127432560Y-71518720D01*
G75*
G02*
X127332560Y-71618720I-100000J0D01*
G01*
G37*
%TD.AperFunction*%
%TO.P,U1,4*%
%TO.N,N/C*%
%TA.AperFunction,SMDPad,CuDef*%
G36*
G01*
X126682560Y-71618720D02*
X126482560Y-71618720D01*
G75*
G02*
X126382560Y-71518720I0J100000D01*
G01*
X126382560Y-70243720D01*
G75*
G02*
X126482560Y-70143720I100000J0D01*
G01*
X126682560Y-70143720D01*
G75*
G02*
X126782560Y-70243720I0J-100000D01*
G01*
X126782560Y-71518720D01*
G75*
G02*
X126682560Y-71618720I-100000J0D01*
G01*
G37*
%TD.AperFunction*%
%TO.P,U1,3*%
%TA.AperFunction,SMDPad,CuDef*%
G36*
G01*
X126032560Y-71618720D02*
X125832560Y-71618720D01*
G75*
G02*
X125732560Y-71518720I0J100000D01*
G01*
X125732560Y-70243720D01*
G75*
G02*
X125832560Y-70143720I100000J0D01*
G01*
X126032560Y-70143720D01*
G75*
G02*
X126132560Y-70243720I0J-100000D01*
G01*
X126132560Y-71518720D01*
G75*
G02*
X126032560Y-71618720I-100000J0D01*
G01*
G37*
%TD.AperFunction*%
%TO.P,U1,2*%
%TO.N,VIN*%
%TA.AperFunction,SMDPad,CuDef*%
G36*
G01*
X125382560Y-71618720D02*
X125182560Y-71618720D01*
G75*
G02*
X125082560Y-71518720I0J100000D01*
G01*
X125082560Y-70243720D01*
G75*
G02*
X125182560Y-70143720I100000J0D01*
G01*
X125382560Y-70143720D01*
G75*
G02*
X125482560Y-70243720I0J-100000D01*
G01*
X125482560Y-71518720D01*
G75*
G02*
X125382560Y-71618720I-100000J0D01*
G01*
G37*
%TD.AperFunction*%
%TO.P,U1,1*%
%TO.N,Net-(Q1-PadG)*%
%TA.AperFunction,SMDPad,CuDef*%
G36*
G01*
X124732560Y-71618720D02*
X124532560Y-71618720D01*
G75*
G02*
X124432560Y-71518720I0J100000D01*
G01*
X124432560Y-70243720D01*
G75*
G02*
X124532560Y-70143720I100000J0D01*
G01*
X124732560Y-70143720D01*
G75*
G02*
X124832560Y-70243720I0J-100000D01*
G01*
X124832560Y-71518720D01*
G75*
G02*
X124732560Y-71618720I-100000J0D01*
G01*
G37*
%TD.AperFunction*%
%TD*%
%TO.P,R3,2*%
%TO.N,SEL*%
%TA.AperFunction,SMDPad,CuDef*%
G36*
G01*
X132743561Y-67806620D02*
X131843559Y-67806620D01*
G75*
G02*
X131593560Y-67556621I0J249999D01*
G01*
X131593560Y-66856619D01*
G75*
G02*
X131843559Y-66606620I249999J0D01*
G01*
X132743561Y-66606620D01*
G75*
G02*
X132993560Y-66856619I0J-249999D01*
G01*
X132993560Y-67556621D01*
G75*
G02*
X132743561Y-67806620I-249999J0D01*
G01*
G37*
%TD.AperFunction*%
%TO.P,R3,1*%
%TO.N,VIN*%
%TA.AperFunction,SMDPad,CuDef*%
G36*
G01*
X132743561Y-69806620D02*
X131843559Y-69806620D01*
G75*
G02*
X131593560Y-69556621I0J249999D01*
G01*
X131593560Y-68856619D01*
G75*
G02*
X131843559Y-68606620I249999J0D01*
G01*
X132743561Y-68606620D01*
G75*
G02*
X132993560Y-68856619I0J-249999D01*
G01*
X132993560Y-69556621D01*
G75*
G02*
X132743561Y-69806620I-249999J0D01*
G01*
G37*
%TD.AperFunction*%
%TD*%
%TO.P,R2,2*%
%TO.N,GND*%
%TA.AperFunction,SMDPad,CuDef*%
G36*
G01*
X129785560Y-58434819D02*
X129785560Y-59334821D01*
G75*
G02*
X129535561Y-59584820I-249999J0D01*
G01*
X128835559Y-59584820D01*
G75*
G02*
X128585560Y-59334821I0J249999D01*
G01*
X128585560Y-58434819D01*
G75*
G02*
X128835559Y-58184820I249999J0D01*
G01*
X129535561Y-58184820D01*
G75*
G02*
X129785560Y-58434819I0J-249999D01*
G01*
G37*
%TD.AperFunction*%
%TO.P,R2,1*%
%TO.N,CC2*%
%TA.AperFunction,SMDPad,CuDef*%
G36*
G01*
X131785560Y-58434819D02*
X131785560Y-59334821D01*
G75*
G02*
X131535561Y-59584820I-249999J0D01*
G01*
X130835559Y-59584820D01*
G75*
G02*
X130585560Y-59334821I0J249999D01*
G01*
X130585560Y-58434819D01*
G75*
G02*
X130835559Y-58184820I249999J0D01*
G01*
X131535561Y-58184820D01*
G75*
G02*
X131785560Y-58434819I0J-249999D01*
G01*
G37*
%TD.AperFunction*%
%TD*%
%TO.P,R1,2*%
%TO.N,GND*%
%TA.AperFunction,SMDPad,CuDef*%
G36*
G01*
X129708560Y-61025619D02*
X129708560Y-61925621D01*
G75*
G02*
X129458561Y-62175620I-249999J0D01*
G01*
X128758559Y-62175620D01*
G75*
G02*
X128508560Y-61925621I0J249999D01*
G01*
X128508560Y-61025619D01*
G75*
G02*
X128758559Y-60775620I249999J0D01*
G01*
X129458561Y-60775620D01*
G75*
G02*
X129708560Y-61025619I0J-249999D01*
G01*
G37*
%TD.AperFunction*%
%TO.P,R1,1*%
%TO.N,CC1*%
%TA.AperFunction,SMDPad,CuDef*%
G36*
G01*
X131708560Y-61025619D02*
X131708560Y-61925621D01*
G75*
G02*
X131458561Y-62175620I-249999J0D01*
G01*
X130758559Y-62175620D01*
G75*
G02*
X130508560Y-61925621I0J249999D01*
G01*
X130508560Y-61025619D01*
G75*
G02*
X130758559Y-60775620I249999J0D01*
G01*
X131458561Y-60775620D01*
G75*
G02*
X131708560Y-61025619I0J-249999D01*
G01*
G37*
%TD.AperFunction*%
%TD*%
D15*
%TO.P,J1,2*%
%TO.N,GND*%
X141869560Y-48318420D03*
D16*
%TO.P,J1,1*%
%TO.N,VOUT*%
X141869560Y-50858420D03*
%TD*%
%TO.P,C2,2*%
%TO.N,GND*%
%TA.AperFunction,SMDPad,CuDef*%
G36*
G01*
X126164560Y-61950620D02*
X126164560Y-61000620D01*
G75*
G02*
X126414560Y-60750620I250000J0D01*
G01*
X127089560Y-60750620D01*
G75*
G02*
X127339560Y-61000620I0J-250000D01*
G01*
X127339560Y-61950620D01*
G75*
G02*
X127089560Y-62200620I-250000J0D01*
G01*
X126414560Y-62200620D01*
G75*
G02*
X126164560Y-61950620I0J250000D01*
G01*
G37*
%TD.AperFunction*%
%TO.P,C2,1*%
%TO.N,VOUT*%
%TA.AperFunction,SMDPad,CuDef*%
G36*
G01*
X124089560Y-61950620D02*
X124089560Y-61000620D01*
G75*
G02*
X124339560Y-60750620I250000J0D01*
G01*
X125014560Y-60750620D01*
G75*
G02*
X125264560Y-61000620I0J-250000D01*
G01*
X125264560Y-61950620D01*
G75*
G02*
X125014560Y-62200620I-250000J0D01*
G01*
X124339560Y-62200620D01*
G75*
G02*
X124089560Y-61950620I0J250000D01*
G01*
G37*
%TD.AperFunction*%
%TD*%
%TO.P,C1,2*%
%TO.N,GND*%
%TA.AperFunction,SMDPad,CuDef*%
G36*
G01*
X127357560Y-75631220D02*
X127357560Y-74681220D01*
G75*
G02*
X127607560Y-74431220I250000J0D01*
G01*
X128282560Y-74431220D01*
G75*
G02*
X128532560Y-74681220I0J-250000D01*
G01*
X128532560Y-75631220D01*
G75*
G02*
X128282560Y-75881220I-250000J0D01*
G01*
X127607560Y-75881220D01*
G75*
G02*
X127357560Y-75631220I0J250000D01*
G01*
G37*
%TD.AperFunction*%
%TO.P,C1,1*%
%TO.N,VIN*%
%TA.AperFunction,SMDPad,CuDef*%
G36*
G01*
X125282560Y-75631220D02*
X125282560Y-74681220D01*
G75*
G02*
X125532560Y-74431220I250000J0D01*
G01*
X126207560Y-74431220D01*
G75*
G02*
X126457560Y-74681220I0J-250000D01*
G01*
X126457560Y-75631220D01*
G75*
G02*
X126207560Y-75881220I-250000J0D01*
G01*
X125532560Y-75881220D01*
G75*
G02*
X125282560Y-75631220I0J250000D01*
G01*
G37*
%TD.AperFunction*%
%TD*%
D17*
%TO.N,GND*%
X130741420Y-52915820D03*
X135958580Y-59301380D03*
X122444130Y-55554880D03*
D18*
%TO.N,VIN*%
X127299720Y-56474360D03*
X132265420Y-69181980D03*
X123294140Y-57096660D03*
D17*
%TO.N,CC1*%
X129909060Y-60180220D03*
X123985020Y-58892440D03*
%TO.N,CC2*%
X132046560Y-60235920D03*
X126702820Y-57655460D03*
%TD*%
D19*
%TO.N,GND*%
X122004560Y-52814620D02*
X121704560Y-52814620D01*
X127232560Y-70881220D02*
X127232560Y-70183420D01*
X127232560Y-70183420D02*
X129209360Y-68206620D01*
X129209360Y-68206620D02*
X132908760Y-68206620D01*
X132908760Y-68206620D02*
X133337860Y-67777520D01*
X133337860Y-67777520D02*
X133337860Y-58662520D01*
X133337860Y-58662520D02*
X131372860Y-56697520D01*
X127945060Y-75156220D02*
X127232560Y-74443720D01*
X127232560Y-74443720D02*
X127232560Y-70881220D01*
X129108560Y-61475620D02*
X129108560Y-58961820D01*
X129108560Y-58961820D02*
X129185560Y-58884820D01*
X126752060Y-61475620D02*
X129108560Y-61475620D01*
X128254960Y-53389620D02*
X128553320Y-53687980D01*
X128254960Y-52814620D02*
X128254960Y-53389620D01*
X129969260Y-53687980D02*
X130741420Y-52915820D01*
X128553320Y-53687980D02*
X129969260Y-53687980D01*
X141869560Y-48318420D02*
X143044860Y-49493720D01*
X143044860Y-49493720D02*
X143044860Y-52215100D01*
X133976720Y-59301380D02*
X135958580Y-59301380D01*
X143044860Y-52215100D02*
X135958580Y-59301380D01*
X132172630Y-57497290D02*
X132267630Y-57592290D01*
X130573090Y-57497290D02*
X132172630Y-57497290D01*
X132267630Y-57592290D02*
X133976720Y-59301380D01*
X131372860Y-56697520D02*
X132267630Y-57592290D01*
X129185560Y-58884820D02*
X130573090Y-57497290D01*
X130573090Y-57497290D02*
X131372860Y-56697520D01*
X121854160Y-52814620D02*
X121854160Y-54964910D01*
X121854160Y-54964910D02*
X122444130Y-55554880D01*
D20*
%TO.N,VIN*%
X125282560Y-72319620D02*
X125282560Y-70881220D01*
D21*
X127467560Y-56306520D02*
X127299720Y-56474360D01*
X127467560Y-52814620D02*
X127467560Y-56306520D01*
X122666960Y-52814620D02*
X122666960Y-54190506D01*
X122666960Y-54190506D02*
X123294140Y-54817686D01*
X123294140Y-54817686D02*
X123294140Y-57096660D01*
X125282560Y-73388220D02*
X125282560Y-72319620D01*
X121491560Y-73388220D02*
X125282560Y-73388220D01*
X132265420Y-72998860D02*
X128653960Y-76610320D01*
X132265420Y-69181980D02*
X132265420Y-72998860D01*
X125870060Y-75156220D02*
X125870060Y-76839720D01*
X126099460Y-76610320D02*
X128653960Y-76610320D01*
X125870060Y-76839720D02*
X126099460Y-76610320D01*
X125870060Y-72907120D02*
X125282560Y-72319620D01*
X125870060Y-73632420D02*
X125870060Y-72907120D01*
X125870060Y-75156220D02*
X125870060Y-73632420D01*
D22*
%TO.N,VOUT*%
X124381760Y-65099320D02*
X124381760Y-61770920D01*
X124381760Y-61770920D02*
X124677060Y-61475620D01*
X119371560Y-74338220D02*
X118171160Y-73137820D01*
X118171160Y-73137820D02*
X118171160Y-71309920D01*
X118171160Y-71309920D02*
X124381760Y-65099320D01*
D20*
X124381760Y-65099320D02*
X124438660Y-65156220D01*
X124438660Y-65156220D02*
X124632560Y-65156220D01*
D22*
X127802821Y-58183461D02*
X127802821Y-58104721D01*
X124677060Y-61475620D02*
X124677060Y-61309222D01*
X124677060Y-61309222D02*
X127802821Y-58183461D01*
X127802821Y-58104721D02*
X135049122Y-50858420D01*
X135049122Y-50858420D02*
X141869560Y-50858420D01*
X141869560Y-50858420D02*
X139420600Y-50858420D01*
D19*
%TO.N,CC1*%
X130395960Y-61475620D02*
X130395960Y-60667120D01*
X130395960Y-60667120D02*
X129909060Y-60180220D01*
X126582560Y-65156220D02*
X126582560Y-64451620D01*
X126582560Y-64451620D02*
X128382960Y-62651220D01*
X128382960Y-62651220D02*
X129576660Y-62651220D01*
X129576660Y-62651220D02*
X130395960Y-61831920D01*
X130395960Y-61831920D02*
X130395960Y-61475620D01*
X131108560Y-61475620D02*
X130395960Y-61475620D01*
X123304560Y-52814620D02*
X123304560Y-54014920D01*
X123304560Y-54014920D02*
X125502850Y-56213210D01*
X125502850Y-57374610D02*
X123985020Y-58892440D01*
X125502850Y-56213210D02*
X125502850Y-57374610D01*
%TO.N,SEL*%
X132293560Y-67206620D02*
X129232460Y-67206620D01*
X129232460Y-67206620D02*
X127882560Y-65856720D01*
X127882560Y-65856720D02*
X127882560Y-65156220D01*
%TO.N,Net-(U2-PadS1)*%
X120734560Y-47794620D02*
X129374560Y-47794620D01*
%TO.N,Net-(Q1-PadG)*%
X119371560Y-72438220D02*
X119371560Y-71812920D01*
X124632560Y-70881220D02*
X120303260Y-70881220D01*
X120303260Y-70881220D02*
X119371560Y-71812920D01*
%TO.N,CC2*%
X132046560Y-60235920D02*
X132046560Y-62198920D01*
X132046560Y-62198920D02*
X130807560Y-63437920D01*
X130807560Y-63437920D02*
X128233160Y-63437920D01*
X128233160Y-63437920D02*
X127232560Y-64438520D01*
X127232560Y-64438520D02*
X127232560Y-65156220D01*
X131185560Y-58884820D02*
X132046560Y-59745820D01*
X132046560Y-59745820D02*
X132046560Y-60235920D01*
X126304560Y-57257200D02*
X126702820Y-57655460D01*
X126304560Y-52814620D02*
X126304560Y-57257200D01*
%TD*%
M02*
