%TF.GenerationSoftware,KiCad,Pcbnew,5.1.10-88a1d61d58~90~ubuntu20.04.1*%
%TF.CreationDate,2021-09-19T21:40:22+08:00*%
%TF.ProjectId,IP2721-USB-C-breakout,49503237-3231-42d5-9553-422d432d6272,rev?*%
%TF.SameCoordinates,Original*%
%TF.FileFunction,Legend,Top*%
%TF.FilePolarity,Positive*%
%FSLAX46Y46*%
G04 Gerber Fmt 4.6, Leading zero omitted, Abs format (unit mm)*
G04 Created by KiCad (PCBNEW 5.1.10-88a1d61d58~90~ubuntu20.04.1) date 2021-09-19 21:40:22*
%MOMM*%
%LPD*%
G01*
G04 APERTURE LIST*
%ADD10C,0.150000*%
%ADD11C,0.127000*%
%ADD12C,0.300000*%
%ADD13C,0.120000*%
G04 APERTURE END LIST*
D10*
%TO.C,U2*%
X120454560Y-45014620D02*
X129654560Y-45014620D01*
X129654560Y-45014620D02*
X129654560Y-46964620D01*
X129654560Y-48614620D02*
X129654560Y-50914620D01*
X120454560Y-45014620D02*
X120454560Y-46964620D01*
X120454560Y-48614620D02*
X120454560Y-50914620D01*
D11*
%TO.C,Q1*%
X121130060Y-71889620D02*
X121130060Y-74886820D01*
X121130060Y-74886820D02*
X119733060Y-74886820D01*
X119733060Y-74886820D02*
X119733060Y-71889620D01*
X119733060Y-71889620D02*
X121130060Y-71889620D01*
D12*
X120304560Y-72435720D02*
G75*
G03*
X120304560Y-72435720I-127000J0D01*
G01*
D13*
%TO.C,U1*%
X129642560Y-68018720D02*
X129642560Y-65818720D01*
X129642560Y-68018720D02*
X129642560Y-70218720D01*
X124172560Y-68018720D02*
X124172560Y-65818720D01*
X124172560Y-68018720D02*
X124172560Y-71618720D01*
%TO.C,R3*%
X131558560Y-68433684D02*
X131558560Y-67979556D01*
X133028560Y-68433684D02*
X133028560Y-67979556D01*
%TO.C,R2*%
X130412624Y-59619820D02*
X129958496Y-59619820D01*
X130412624Y-58149820D02*
X129958496Y-58149820D01*
%TO.C,R1*%
X130335624Y-62210620D02*
X129881496Y-62210620D01*
X130335624Y-60740620D02*
X129881496Y-60740620D01*
%TO.C,J1*%
X143199560Y-46988420D02*
X140539560Y-46988420D01*
X143199560Y-49588420D02*
X143199560Y-46988420D01*
X140539560Y-49588420D02*
X140539560Y-46988420D01*
X143199560Y-49588420D02*
X140539560Y-49588420D01*
X143199560Y-50858420D02*
X143199560Y-52188420D01*
X143199560Y-52188420D02*
X141869560Y-52188420D01*
%TO.C,C2*%
X125453308Y-60740620D02*
X125975812Y-60740620D01*
X125453308Y-62210620D02*
X125975812Y-62210620D01*
%TO.C,C1*%
X126646308Y-74421220D02*
X127168812Y-74421220D01*
X126646308Y-75891220D02*
X127168812Y-75891220D01*
%TO.C,U2*%
D10*
X124292655Y-54467000D02*
X124292655Y-55276524D01*
X124340274Y-55371762D01*
X124387893Y-55419381D01*
X124483131Y-55467000D01*
X124673607Y-55467000D01*
X124768845Y-55419381D01*
X124816464Y-55371762D01*
X124864083Y-55276524D01*
X124864083Y-54467000D01*
X125292655Y-54562239D02*
X125340274Y-54514620D01*
X125435512Y-54467000D01*
X125673607Y-54467000D01*
X125768845Y-54514620D01*
X125816464Y-54562239D01*
X125864083Y-54657477D01*
X125864083Y-54752715D01*
X125816464Y-54895572D01*
X125245036Y-55467000D01*
X125864083Y-55467000D01*
%TO.C,Q1*%
X123079179Y-73483458D02*
X123031560Y-73578696D01*
X122936321Y-73673934D01*
X122793464Y-73816791D01*
X122745845Y-73912029D01*
X122745845Y-74007267D01*
X122983940Y-73959648D02*
X122936321Y-74054886D01*
X122841083Y-74150124D01*
X122650607Y-74197743D01*
X122317274Y-74197743D01*
X122126798Y-74150124D01*
X122031560Y-74054886D01*
X121983940Y-73959648D01*
X121983940Y-73769172D01*
X122031560Y-73673934D01*
X122126798Y-73578696D01*
X122317274Y-73531077D01*
X122650607Y-73531077D01*
X122841083Y-73578696D01*
X122936321Y-73673934D01*
X122983940Y-73769172D01*
X122983940Y-73959648D01*
X122983940Y-72578696D02*
X122983940Y-73150124D01*
X122983940Y-72864410D02*
X121983940Y-72864410D01*
X122126798Y-72959648D01*
X122222036Y-73054886D01*
X122269655Y-73150124D01*
X118498226Y-76483458D02*
X118498226Y-76007267D01*
X118783940Y-76578696D02*
X117783940Y-76245362D01*
X118783940Y-75912029D01*
X117783940Y-75388220D02*
X117783940Y-75197743D01*
X117831560Y-75102505D01*
X117926798Y-75007267D01*
X118117274Y-74959648D01*
X118450607Y-74959648D01*
X118641083Y-75007267D01*
X118736321Y-75102505D01*
X118783940Y-75197743D01*
X118783940Y-75388220D01*
X118736321Y-75483458D01*
X118641083Y-75578696D01*
X118450607Y-75626315D01*
X118117274Y-75626315D01*
X117926798Y-75578696D01*
X117831560Y-75483458D01*
X117783940Y-75388220D01*
X117783940Y-74626315D02*
X117783940Y-74007267D01*
X118164893Y-74340600D01*
X118164893Y-74197743D01*
X118212512Y-74102505D01*
X118260131Y-74054886D01*
X118355369Y-74007267D01*
X118593464Y-74007267D01*
X118688702Y-74054886D01*
X118736321Y-74102505D01*
X118783940Y-74197743D01*
X118783940Y-74483458D01*
X118736321Y-74578696D01*
X118688702Y-74626315D01*
X118117274Y-73150124D02*
X118783940Y-73150124D01*
X117736321Y-73388220D02*
X118450607Y-73626315D01*
X118450607Y-73007267D01*
X117783940Y-72435839D02*
X117783940Y-72340600D01*
X117831560Y-72245362D01*
X117879179Y-72197743D01*
X117974417Y-72150124D01*
X118164893Y-72102505D01*
X118402988Y-72102505D01*
X118593464Y-72150124D01*
X118688702Y-72197743D01*
X118736321Y-72245362D01*
X118783940Y-72340600D01*
X118783940Y-72435839D01*
X118736321Y-72531077D01*
X118688702Y-72578696D01*
X118593464Y-72626315D01*
X118402988Y-72673934D01*
X118164893Y-72673934D01*
X117974417Y-72626315D01*
X117879179Y-72578696D01*
X117831560Y-72531077D01*
X117783940Y-72435839D01*
X117783940Y-71483458D02*
X117783940Y-71388220D01*
X117831560Y-71292981D01*
X117879179Y-71245362D01*
X117974417Y-71197743D01*
X118164893Y-71150124D01*
X118402988Y-71150124D01*
X118593464Y-71197743D01*
X118688702Y-71245362D01*
X118736321Y-71292981D01*
X118783940Y-71388220D01*
X118783940Y-71483458D01*
X118736321Y-71578696D01*
X118688702Y-71626315D01*
X118593464Y-71673934D01*
X118402988Y-71721553D01*
X118164893Y-71721553D01*
X117974417Y-71673934D01*
X117879179Y-71626315D01*
X117831560Y-71578696D01*
X117783940Y-71483458D01*
X118498226Y-70769172D02*
X118498226Y-70292981D01*
X118783940Y-70864410D02*
X117783940Y-70531077D01*
X118783940Y-70197743D01*
%TO.C,U1*%
X122909940Y-68780624D02*
X123719464Y-68780624D01*
X123814702Y-68733005D01*
X123862321Y-68685386D01*
X123909940Y-68590148D01*
X123909940Y-68399672D01*
X123862321Y-68304434D01*
X123814702Y-68256815D01*
X123719464Y-68209196D01*
X122909940Y-68209196D01*
X123909940Y-67209196D02*
X123909940Y-67780624D01*
X123909940Y-67494910D02*
X122909940Y-67494910D01*
X123052798Y-67590148D01*
X123148036Y-67685386D01*
X123195655Y-67780624D01*
%TO.C,R3*%
X131095940Y-68373286D02*
X130619750Y-68706620D01*
X131095940Y-68944715D02*
X130095940Y-68944715D01*
X130095940Y-68563762D01*
X130143560Y-68468524D01*
X130191179Y-68420905D01*
X130286417Y-68373286D01*
X130429274Y-68373286D01*
X130524512Y-68420905D01*
X130572131Y-68468524D01*
X130619750Y-68563762D01*
X130619750Y-68944715D01*
X130095940Y-68039953D02*
X130095940Y-67420905D01*
X130476893Y-67754239D01*
X130476893Y-67611381D01*
X130524512Y-67516143D01*
X130572131Y-67468524D01*
X130667369Y-67420905D01*
X130905464Y-67420905D01*
X131000702Y-67468524D01*
X131048321Y-67516143D01*
X131095940Y-67611381D01*
X131095940Y-67897096D01*
X131048321Y-67992334D01*
X131000702Y-68039953D01*
%TO.C,R2*%
X130018893Y-60987200D02*
X129685560Y-60511010D01*
X129447464Y-60987200D02*
X129447464Y-59987200D01*
X129828417Y-59987200D01*
X129923655Y-60034820D01*
X129971274Y-60082439D01*
X130018893Y-60177677D01*
X130018893Y-60320534D01*
X129971274Y-60415772D01*
X129923655Y-60463391D01*
X129828417Y-60511010D01*
X129447464Y-60511010D01*
X130399845Y-60082439D02*
X130447464Y-60034820D01*
X130542702Y-59987200D01*
X130780798Y-59987200D01*
X130876036Y-60034820D01*
X130923655Y-60082439D01*
X130971274Y-60177677D01*
X130971274Y-60272915D01*
X130923655Y-60415772D01*
X130352226Y-60987200D01*
X130971274Y-60987200D01*
%TO.C,R1*%
X129941893Y-63578000D02*
X129608560Y-63101810D01*
X129370464Y-63578000D02*
X129370464Y-62578000D01*
X129751417Y-62578000D01*
X129846655Y-62625620D01*
X129894274Y-62673239D01*
X129941893Y-62768477D01*
X129941893Y-62911334D01*
X129894274Y-63006572D01*
X129846655Y-63054191D01*
X129751417Y-63101810D01*
X129370464Y-63101810D01*
X130894274Y-63578000D02*
X130322845Y-63578000D01*
X130608560Y-63578000D02*
X130608560Y-62578000D01*
X130513321Y-62720858D01*
X130418083Y-62816096D01*
X130322845Y-62863715D01*
%TO.C,J1*%
X141536226Y-52640800D02*
X141536226Y-53355086D01*
X141488607Y-53497943D01*
X141393369Y-53593181D01*
X141250512Y-53640800D01*
X141155274Y-53640800D01*
X142536226Y-53640800D02*
X141964798Y-53640800D01*
X142250512Y-53640800D02*
X142250512Y-52640800D01*
X142155274Y-52783658D01*
X142060036Y-52878896D01*
X141964798Y-52926515D01*
%TO.C,C2*%
X125547893Y-60152762D02*
X125500274Y-60200381D01*
X125357417Y-60248000D01*
X125262179Y-60248000D01*
X125119321Y-60200381D01*
X125024083Y-60105143D01*
X124976464Y-60009905D01*
X124928845Y-59819429D01*
X124928845Y-59676572D01*
X124976464Y-59486096D01*
X125024083Y-59390858D01*
X125119321Y-59295620D01*
X125262179Y-59248000D01*
X125357417Y-59248000D01*
X125500274Y-59295620D01*
X125547893Y-59343239D01*
X125928845Y-59343239D02*
X125976464Y-59295620D01*
X126071702Y-59248000D01*
X126309798Y-59248000D01*
X126405036Y-59295620D01*
X126452655Y-59343239D01*
X126500274Y-59438477D01*
X126500274Y-59533715D01*
X126452655Y-59676572D01*
X125881226Y-60248000D01*
X126500274Y-60248000D01*
%TO.C,C1*%
X126740893Y-73833362D02*
X126693274Y-73880981D01*
X126550417Y-73928600D01*
X126455179Y-73928600D01*
X126312321Y-73880981D01*
X126217083Y-73785743D01*
X126169464Y-73690505D01*
X126121845Y-73500029D01*
X126121845Y-73357172D01*
X126169464Y-73166696D01*
X126217083Y-73071458D01*
X126312321Y-72976220D01*
X126455179Y-72928600D01*
X126550417Y-72928600D01*
X126693274Y-72976220D01*
X126740893Y-73023839D01*
X127693274Y-73928600D02*
X127121845Y-73928600D01*
X127407560Y-73928600D02*
X127407560Y-72928600D01*
X127312321Y-73071458D01*
X127217083Y-73166696D01*
X127121845Y-73214315D01*
%TD*%
M02*
